<?xml version="1.0" encoding="utf-8"?>
<!-- Generator: Adobe Illustrator 25.3.1, SVG Export Plug-In . SVG Version: 6.00 Build 0)  -->
<svg version="1.1" id="Camada_1" xmlns="http://www.w3.org/2000/svg" xmlns:xlink="http://www.w3.org/1999/xlink" x="0px" y="0px"
	 viewBox="0 0 111.7 108.7" style="enable-background:new 0 0 111.7 108.7;" xml:space="preserve">
<style type="text/css">
	.st0{fill:#DFE6D6;}
	.st1{fill:#B7C4A9;}
	.st2{fill:#29401E;}
	.st3{fill:#E2EED4;}
	.st4{fill:#B6D097;}
	.st5{fill:#DBE8CD;}
	.st6{opacity:0.68;fill:#B4D491;}
	.st7{fill:#478655;}
	.st8{fill:#2B5342;}
	.st9{fill:#FFFFFF;}
	.st10{fill:none;stroke:#949E88;stroke-width:2.9774;stroke-linecap:round;stroke-linejoin:round;stroke-miterlimit:10;}
	.st11{fill:#6D8D47;}
	.st12{fill-rule:evenodd;clip-rule:evenodd;fill:#DBE8CD;}
	.st13{fill-rule:evenodd;clip-rule:evenodd;fill:#E4633D;}
	.st14{fill-rule:evenodd;clip-rule:evenodd;fill:#4B2B1B;}
	.st15{fill-rule:evenodd;clip-rule:evenodd;fill:#8D9F79;}
	.st16{fill-rule:evenodd;clip-rule:evenodd;fill:#7C8C6C;}
	.st17{fill:#CA5936;}
	.st18{fill:#8D9F79;}
	.st19{fill-rule:evenodd;clip-rule:evenodd;fill:#3D2315;}
	.st20{fill-rule:evenodd;clip-rule:evenodd;fill:#728F3A;}
	.st21{fill-rule:evenodd;clip-rule:evenodd;fill:#CA5936;}
	.st22{fill-rule:evenodd;clip-rule:evenodd;fill:#F6CD7D;}
	.st23{fill-rule:evenodd;clip-rule:evenodd;fill:#EBC479;}
	
		.st24{fill-rule:evenodd;clip-rule:evenodd;fill:none;stroke:#E4BEA9;stroke-width:2.686;stroke-linecap:round;stroke-linejoin:round;stroke-miterlimit:10;}
	.st25{fill:none;stroke:#B68F3E;stroke-width:2.8878;stroke-linecap:round;stroke-linejoin:round;stroke-miterlimit:10;}
	.st26{fill-rule:evenodd;clip-rule:evenodd;fill:#572A22;}
	.st27{fill-rule:evenodd;clip-rule:evenodd;fill:#633D1D;}
	.st28{fill-rule:evenodd;clip-rule:evenodd;fill:#FFFFFF;}
	.st29{fill:#EBF2E1;}
	.st30{fill:#70914A;}
	.st31{fill:#475A2E;}
	.st32{fill:#638042;}
	.st33{fill:#91A678;}
	.st34{fill:#A5BD87;}
	.st35{fill:#91BB5F;}
	.st36{fill:#87AD59;}
	.st37{fill:#7A9E50;}
	.st38{fill:#ECC579;}
	.st39{fill:#89A861;}
	.st40{fill:#D5AA57;}
	.st41{fill:#F6CD7D;}
	.st42{fill:none;stroke:#FFFFFF;stroke-width:5.512;stroke-linecap:round;stroke-linejoin:round;stroke-miterlimit:10;}
	.st43{fill:#618141;}
	.st44{fill:#779E4F;}
	.st45{fill:#A5CB6D;}
	.st46{fill:none;stroke:#FFFFFF;stroke-width:4.0646;stroke-linecap:round;stroke-linejoin:round;stroke-miterlimit:10;}
	.st47{fill:#425F35;}
	.st48{fill:#DE5940;}
	.st49{fill:#663A25;}
	.st50{fill:#522E1D;}
	.st51{fill:#E4BE74;}
	.st52{fill:none;stroke:#CDAC69;stroke-width:2.756;stroke-linecap:round;stroke-linejoin:round;stroke-miterlimit:10;}
	.st53{fill:#BB432D;}
	.st54{fill:none;stroke:#482A1A;stroke-width:1.378;stroke-linecap:round;stroke-linejoin:round;stroke-miterlimit:10;}
	.st55{fill:none;stroke:#CDAC69;stroke-width:1.378;stroke-linecap:round;stroke-linejoin:round;stroke-miterlimit:10;}
	.st56{fill:#A3C77D;}
	.st57{fill:#90B070;}
	.st58{fill:#495E30;}
	.st59{fill:#5C793D;}
	.st60{fill:#D6DCCD;}
	.st61{fill:#FBFCFE;}
	.st62{fill:#C1CFB2;}
	.st63{fill:#434342;}
	.st64{fill:#789C4F;}
	.st65{fill:#D0A757;}
	.st66{fill-rule:evenodd;clip-rule:evenodd;fill:#623825;}
	.st67{fill:#4D2C1C;}
	.st68{fill:#874C2B;}
	.st69{fill:#E3B965;}
	.st70{fill:#6C3E27;}
	
		.st71{fill-rule:evenodd;clip-rule:evenodd;fill:none;stroke:#261711;stroke-width:0.8035;stroke-linecap:round;stroke-linejoin:round;stroke-miterlimit:10;}
	.st72{fill:#738F55;}
	.st73{fill:#D56D4E;}
	.st74{fill:#9CA88A;}
	.st75{fill:#7D8576;}
	.st76{fill-rule:evenodd;clip-rule:evenodd;fill:#D56D4E;}
	.st77{fill-rule:evenodd;clip-rule:evenodd;fill:#C4CFC6;}
	.st78{fill:#A5ADA6;}
	.st79{fill:#98BA6F;}
	.st80{fill:#A7B493;}
	.st81{fill:#C1CCB1;}
	.st82{fill:#EE8C89;}
	.st83{fill:#6F4E17;}
	.st84{fill:none;stroke:#A8A7A7;stroke-width:0.75;stroke-miterlimit:10;}
	.st85{fill:#A8A7A7;}
	.st86{fill:#98B977;}
</style>
<g>
	<g>
		<ellipse class="st29" cx="81.6" cy="87.8" rx="8.5" ry="4.1"/>
		<path class="st29" d="M95,58c8.3-22.6-15.9-48.2-47.4-42c-15.2,3-44,23.8-39.5,52.7c2.1,13.2,21.9,25.2,38.3,4.8
			C58.3,58.6,87.6,78.2,95,58z"/>
		<path class="st29" d="M71.9,90.4l9.8-9.4c1.4-1.3,0.7-3.7-1.1-4.2l-27-7.4L71.9,90.4z"/>
		<circle class="st56" cx="81.8" cy="57.9" r="6.7"/>
		<circle class="st56" cx="81.6" cy="69.1" r="10.3"/>
		<path class="st57" d="M87.7,60.9c0.5-0.9,0.7-1.9,0.7-3c0-3.3-2.4-6-5.5-6.6c0.6,1,1,2.3,1,3.6c0,1.1-0.3,2.1-0.7,3
			c2.5,1.9,4.1,4.9,4.1,8.3c0,5.7-4.6,10.3-10.3,10.3c-1.2,0-2.3-0.2-3.3-0.5c1.9,2.2,4.7,3.6,7.8,3.6c5.7,0,10.3-4.6,10.3-10.3
			C91.8,65.8,90.2,62.8,87.7,60.9z"/>
		<g>
			<path class="st47" d="M81.6,87.5c-0.1,0-0.1-0.1-0.1-0.1V59.5c0-0.1,0.1-0.1,0.1-0.1c0.1,0,0.1,0.1,0.1,0.1v27.9
				C81.7,87.4,81.7,87.5,81.6,87.5z"/>
		</g>
		<g>
			<path class="st47" d="M81.6,74.4C81.6,74.4,81.5,74.3,81.6,74.4c-0.1-0.1-0.1-0.1-0.1-0.2l3.9-5.5c0-0.1,0.1-0.1,0.2,0
				c0.1,0,0.1,0.1,0,0.2L81.6,74.4C81.7,74.3,81.6,74.4,81.6,74.4z"/>
		</g>
		<g>
			<path class="st47" d="M81.4,67.7C81.3,67.7,81.3,67.7,81.4,67.7L78,63c0-0.1,0-0.1,0-0.2c0.1,0,0.1,0,0.2,0l3.2,4.6
				C81.5,67.6,81.5,67.6,81.4,67.7C81.4,67.7,81.4,67.7,81.4,67.7z"/>
		</g>
		
			<ellipse transform="matrix(8.111201e-02 -0.9967 0.9967 8.111201e-02 -53.2378 121.0444)" class="st29" cx="39" cy="89.4" rx="5.5" ry="14.2"/>
		<path class="st58" d="M69,91.1L41.5,85c-0.9-0.2-1.5-1-1.5-1.9l0.4-41.5c0-1.5,1.7-2.8,3.2-2.5l27.5,5.5c0.9,0.2,1.6,0.9,1.6,1.9
			l-0.4,42.6C72.3,90.7,70.5,91.5,69,91.1z"/>
		<path class="st59" d="M68.3,91.5l-27.5-6.1c-0.9-0.2-1.5-1-1.5-1.9l0.4-41.5c0-1.5,1.7-2.8,3.2-2.5L70.4,45
			c0.9,0.2,1.6,0.9,1.6,1.9l-0.4,42.6C71.6,91.1,69.9,91.9,68.3,91.5z"/>
		<polygon class="st60" points="42.4,43.1 42.1,82.4 69.7,88.5 70,49 		"/>
		<g>
			<g>
				<polygon class="st61" points="68.3,89.6 40.7,83.5 41,44.2 68.7,50.1 				"/>
			</g>
		</g>
		<path class="st62" d="M60.7,45.6l-1.6-0.3l0-0.7c0.1-2-1.5-3.9-3.6-4.4l0,0c-2.1-0.4-3.8,0.8-3.9,2.8l0,0.7l-1.6-0.3
			c-1.4-0.3-2.7,0.6-2.7,2v0c-0.1,1.4,1.1,2.8,2.5,3.1l10.6,2.3c1.4,0.3,2.7-0.6,2.7-2v0C63.3,47.3,62.1,45.9,60.7,45.6z M55.6,43.8
			l-0.3-0.1c-0.5-0.1-0.9-0.6-0.9-1.1s0.4-0.8,1-0.7l0.3,0.1c0.5,0.1,0.9,0.6,0.9,1.1S56.1,43.9,55.6,43.8z"/>
		<g>
			<path class="st63" d="M63.2,81.2C63.2,81.2,63.2,81.2,63.2,81.2l-3-0.6c0,0-0.1-0.1-0.1-0.1c0,0,0.1-0.1,0.1-0.1l3,0.6
				C63.3,81.1,63.3,81.1,63.2,81.2C63.3,81.2,63.3,81.2,63.2,81.2z"/>
		</g>
		<g>
			<path class="st63" d="M63.2,83.1C63.2,83.1,63.2,83.1,63.2,83.1L57.9,82c0,0-0.1-0.1-0.1-0.1c0,0,0.1-0.1,0.1-0.1l5.4,1.1
				C63.3,82.9,63.3,83,63.2,83.1C63.3,83,63.3,83.1,63.2,83.1z"/>
		</g>
		
			<ellipse transform="matrix(0.9104 -0.4137 0.4137 0.9104 -22.1794 28.4503)" class="st29" cx="54.6" cy="65.4" rx="10" ry="11.4"/>
		<g>
			<path class="st64" d="M57.8,71.8c0.3-4.1,1.7-9.2-3.4-10.3c-2.5-0.6-3.7,0.2-4.3,1.1c-0.1,0.1-0.1,0.2-0.2,0.3
				c-0.5,1.1-0.2,2.5,0.6,3.5l1.1,1.3c1.2,1.4,1.8,3.1,1.6,4.6c0,0.2-0.1,0.4-0.1,0.6c-0.4,2.3-0.8,4.6,1.4,5.1
				C57.3,78.5,57.7,73.4,57.8,71.8z"/>
			<ellipse transform="matrix(0.913 -0.408 0.408 0.913 -19.8679 24.8617)" class="st64" cx="48.4" cy="59" rx="1.4" ry="2.5"/>
			
				<ellipse transform="matrix(0.9643 -0.2647 0.2647 0.9643 -13.7032 15.8366)" class="st64" cx="51.9" cy="58.8" rx="0.8" ry="1.5"/>
			
				<ellipse transform="matrix(0.999 -4.478421e-02 4.478421e-02 0.999 -2.5882 2.5034)" class="st64" cx="54.6" cy="59" rx="0.7" ry="1.2"/>
			
				<ellipse transform="matrix(0.1557 -0.9878 0.9878 0.1557 -11.0895 107.2567)" class="st64" cx="57.2" cy="60.1" rx="1" ry="0.6"/>
			
				<ellipse transform="matrix(0.3748 -0.9271 0.9271 0.3748 -20.6054 93.2021)" class="st64" cx="58.8" cy="61.9" rx="0.8" ry="0.5"/>
		</g>
		<g>
			<path class="st31" d="M78.2,37.5c-0.6,0-1.1-0.5-1.1-1.1s0.5-1.1,1.1-1.1c0.6,0,1.1,0.5,1.1,1.1C79.2,37,78.8,37.5,78.2,37.5z
				 M78.2,35.5c-0.5,0-0.9,0.4-0.9,0.9s0.4,0.9,0.9,0.9c0.5,0,0.9-0.4,0.9-0.9C79,35.9,78.6,35.5,78.2,35.5z"/>
		</g>
		<g>
			<path class="st31" d="M20.2,67.6c-0.6,0-1.1-0.5-1.1-1.1c0-0.6,0.5-1.1,1.1-1.1s1.1,0.5,1.1,1.1C21.3,67.1,20.8,67.6,20.2,67.6z
				 M20.2,65.6c-0.5,0-0.9,0.4-0.9,0.9c0,0.5,0.4,0.9,0.9,0.9c0.5,0,0.9-0.4,0.9-0.9C21.1,66,20.7,65.6,20.2,65.6z"/>
		</g>
		<g>
			<path class="st31" d="M36.9,32.3c-0.6,0-1.1-0.5-1.1-1.1c0-0.6,0.5-1.1,1.1-1.1c0.6,0,1.1,0.5,1.1,1.1S37.5,32.3,36.9,32.3z
				 M36.9,30.4c-0.5,0-0.9,0.4-0.9,0.9c0,0.5,0.4,0.9,0.9,0.9s0.9-0.4,0.9-0.9S37.4,30.4,36.9,30.4z"/>
		</g>
		<path class="st28" d="M70,31.4c0.7,0.1,1.1-0.6,0.8-1.3c-0.6-1.3-1.6-2.9-3.1-3c-1.6-0.1-2.5,1-3,1.8c-0.2,0.4-0.8,0.5-1.2,0.2
			c-0.5-0.4-1.3-0.8-2.3-0.9c-0.5-0.1-1,0-1.4,0.2c-0.8,0.4-0.6,1.8,0.4,1.9L70,31.4z"/>
		<path class="st28" d="M22.2,56.1c-0.6-0.1-1.1-0.8-0.8-1.4c0.5-1.1,1.5-2.4,3-2.2c1.5,0.2,2.5,1.5,2.9,2.4
			c0.2,0.4,0.7,0.6,1.1,0.5c0.5-0.2,1.3-0.4,2.2-0.3c0.5,0.1,0.9,0.2,1.3,0.5c0.8,0.5,0.5,1.8-0.4,1.7L22.2,56.1z"/>
		<g>
			<polygon class="st65" points="44.2,72.1 43.1,72 42.6,71.6 44.4,70.9 			"/>
			<polygon class="st65" points="35.9,89.5 34,90.2 33.3,89.7 35.2,88.5 			"/>
			<g>
				<g>
					<path class="st65" d="M34.3,78.5c-2.3-0.4-4.2-2.8-4.2-5.3c0-2.6,1.9-4.3,4.2-4c2.3,0.4,4.2,2.8,4.2,5.3S36.7,78.8,34.3,78.5z
						 M34.3,71.5c-1.2-0.2-2.1,0.7-2.1,2s1,2.5,2.1,2.7c1.2,0.2,2.1-0.7,2.1-2C36.5,72.9,35.5,71.7,34.3,71.5z"/>
				</g>
			</g>
			<path class="st65" d="M34.7,89.3L34.7,89.3c-0.6-0.5-0.8-1.4-0.4-2l9.7-15.9c0.4-0.6,1.2-0.7,1.8-0.2h0c0.6,0.5,0.8,1.4,0.4,2
				l-9.7,15.9C36.1,89.7,35.3,89.8,34.7,89.3z"/>
			<g>
				<path class="st38" d="M32.6,79.2c-2.3-0.4-4.2-2.8-4.2-5.3s1.9-4.3,4.2-4s4.2,2.8,4.2,5.3C36.9,77.8,35,79.6,32.6,79.2z
					 M32.6,72.2c-1.2-0.2-2.1,0.7-2.1,2s1,2.5,2.1,2.7c1.2,0.2,2.1-0.7,2.1-2S33.8,72.4,32.6,72.2z"/>
			</g>
			<g>
				<g>
					<path class="st65" d="M46.2,91.3c-2.3-0.4-4.2-2.8-4.2-5.3c0-2.6,1.9-4.3,4.2-4s4.2,2.8,4.2,5.3C50.4,89.9,48.5,91.6,46.2,91.3
						z M46.2,84.3C45,84.1,44,85,44,86.3s1,2.5,2.1,2.7c1.2,0.2,2.1-0.7,2.1-2C48.3,85.7,47.4,84.5,46.2,84.3z"/>
				</g>
			</g>
			<g>
				<path class="st38" d="M44.5,92c-2.3-0.4-4.2-2.8-4.2-5.3s1.9-4.3,4.2-4s4.2,2.8,4.2,5.3C48.7,90.6,46.8,92.4,44.5,92z M44.5,85
					c-1.2-0.2-2.1,0.7-2.1,2s1,2.5,2.1,2.7c1.2,0.2,2.1-0.7,2.1-2S45.7,85.2,44.5,85z"/>
			</g>
			<path class="st38" d="M32.8,90L32.8,90c-0.6-0.5-0.8-1.4-0.4-2L42,72.1c0.4-0.6,1.2-0.7,1.8-0.2l0,0c0.6,0.5,0.8,1.4,0.4,2
				l-9.7,15.9C34.2,90.4,33.4,90.5,32.8,90z"/>
		</g>
		<g>
			<path class="st66" d="M72.6,67.6c0,0,0.5,0.2,0.6-0.1c0-0.3,0.3,0.1,0.5-0.3c0.2-0.3,0.7-0.1,0.5-0.7c-0.2-0.5-0.2-0.7,0-0.9
				c0.2-0.2-0.3-0.7-0.2-1c0.1-0.3,0-0.4-0.2-0.7c-0.2-0.3-0.2-0.4-0.5-0.5c-0.3-0.1-0.8-0.2-0.9-0.2c-0.5-0.5-0.7-0.1-1-0.1
				c-0.3,0-0.2-0.1-0.6,0c-0.4,0.1-0.4,0.7-0.6,0.7s-0.5,0.3-0.4,0.5s-0.2,0.3-0.1,0.7c0.1,0.3-0.2,0.5,0,0.8
				c0.2,0.3,0.3,0.4,0.1,0.6c-0.4,0.5-0.1,0.4,0.1,0.7c0.2,0.3,0,0.5,0.2,0.5c0.2,0,0.6-0.2,0.7-0.1s0.2,0.2,0.5,0.2
				S72.3,67.4,72.6,67.6z"/>
			<path class="st29" d="M76.7,94.4c-1.8-1-5-1.1-7.2-0.3c-0.4,0.1-0.7,0.3-0.9,0.5c-1.3-0.4-3.1-0.4-4.4,0.1
				c-1.5,0.6-1.6,1.6-0.3,2.3c1.2,0.7,3.4,0.8,4.8,0.3c0.1,0.1,0.2,0.1,0.3,0.2c1.8,1,5,1.1,7.2,0.3C78.4,96.9,78.6,95.4,76.7,94.4z
				"/>
			<path class="st67" d="M66.4,95.4l1.1-1.2c0.3-0.3,0.6-0.4,1-0.4c0.1,0,0.3,0,0.4,0c0.2,0,0.2,0.1,0.2,0.3l0,0.3
				c0,0.5,0.1,0.6-0.2,0.8l-1.9,0.8C66.5,96.3,65.7,96,66.4,95.4z"/>
			<path class="st68" d="M68.8,94.1c-0.1,0.3-0.3,0.5-0.6,0.4c-0.2,0-0.3-0.1-0.3-0.4c0.1-3.3-0.3-6-0.2-9c0.1-3.4,0.1-2.4,0.2-7.6
				l3.1-0.6c-0.7,3.8-1,8.5-1,8.5C70.9,88.8,69.5,90,68.8,94.1z"/>
			<path class="st33" d="M71.4,75.6l-1.1,8c-0.1,0.9-0.1,1.5,0,2.4c0.2,1.3,0.1,3.8-1.1,7.5c-0.5,0.4-1,0.4-1.6,0
				c0,0-0.4-8.2-0.4-9.8c0-1.6,0.8-9.6,0.8-9.6L71.4,75.6z"/>
			<path class="st67" d="M74.2,95.2l0,1c0,0.1,0.1,0.7,0.2,0.8c0.1,0.3,0.4,0.4,0.6,0.4c0.3,0,0.9-0.5,0.7-1.1
				c-0.2-0.5-0.6-1.4-0.6-1.4C74.7,95.2,74.5,95.2,74.2,95.2z"/>
			<path class="st68" d="M75.1,95.3c0.1,0.4-0.6,0.6-0.9,0.2c-0.3-3.2-0.9-6.2-1.2-9.2c-0.3-3.4-0.6-3.2-1.1-8.4l3.4,0.2
				c-0.2,3.8,0,8.5,0,8.5C76.5,90.1,75.3,90.7,75.1,95.3z"/>
			<path class="st33" d="M74.3,75c0.6,0,1.1,0.5,1.1,1.1c0,2-0.1,6.1,0.1,7.2c0.2,1.2,0.5,3.1,0.7,3.9c0.1,0.3,0.1,0.5,0.1,0.8
				c0,1.2-0.1,4.4-0.6,6.3c-0.4,0.5-1.2,0.4-1.8,0.1l-1.3-7.8c0-0.1-0.9-5.9-0.9-5.9L69.5,80l1.3-5.3C70.8,74.8,72.6,75,74.3,75z"/>
			<path class="st68" d="M60.4,64.8L60.4,64.8c-0.2,0.2-0.2,0.5-0.1,0.6l0.7,0.4c0.2,0.1,0.1,0,0.2-0.2l0,0c0.2-0.2,0.4-0.1,0.1-0.4
				L61,64.8c-0.1-0.1-0.1-0.1-0.2-0.1C60.7,64.6,60.6,64.6,60.4,64.8z"/>
			<path class="st41" d="M69.5,70.5c1.3,0,1-1.2,1-1.2L69.3,67c-0.8-0.2-2.8,0.7-4.4,1.1c-0.4,0-0.7-0.2-1-0.5l-2.3-2.3l-0.6,0.5
				l1.6,3.2c0.6,1.3,2.5,1.4,2.8,1.4C65.4,70.4,67.9,70.5,69.5,70.5z"/>
			<path class="st68" d="M69.1,69.4c0,0,0-2.6,1.4-2.6c0.2,0,0.5-0.2,0.8-0.2c1.2,0,1,0,1.9,0.4c0.3,0.1,0.6,1.1,0.5,1.4l0.5,1.1
				L69.1,69.4z"/>
			<path class="st41" d="M69.7,66.9c0.2,0,0.8-0.1,0.8-0.1c-0.1,0.6-0.1,1,0.2,1.2c1.1,0.6,2.1-1.2,2.2-1.1l1.2,0.4
				c1,0.3,2,3.8,1.4,5.2c0,0-1.5-0.2-1.5,0.8c0,0.9,0.8,2.2,0.9,2.4c0.2,0.4-0.9,2.6-4.2,2.3c-0.8-0.1-2.6-0.6-3-0.8
				c-0.3-0.2-0.3-0.2-0.2-1.1c0.3-1.6,0.9-4.4,0.9-4.9c0-0.7-0.6-1.1-0.2-2.3c0.4-1.1,0.6-1.9,0.6-1.9L69.7,66.9z"/>
			<path class="st69" d="M75.8,76.3c-0.2-0.3-0.8-1.6-0.8-4.2c0-0.6-0.5-1.5-0.3-2.3c-0.4,0.9-0.2,1.8-0.5,2.4
				c-0.4,0.8-1.1,1.7-0.9,2.6c0.3,1.6-0.5,2.7-1.7,3.1C74.2,77.8,76,76.6,75.8,76.3z"/>
			<path class="st68" d="M72.4,67.1L72,65.4c-0.1-0.3-0.4-0.4-0.7-0.4l-0.1,0c-0.3,0.1-0.5,0.3-0.4,0.6l0.2,1.6
				C71.1,67.6,72.4,67.4,72.4,67.1z"/>
			<path class="st70" d="M70.9,66c0,0,0.7,0,1-0.5c0,0-0.3,0.8-1,0.8L70.9,66z"/>
			<path class="st68" d="M72.3,63.8c-0.1-0.3-0.4-0.4-0.7-0.3c-0.2-0.1-0.5,0-0.8,0.3c-0.4,0.5-0.5,1.4-0.3,1.8
				c0.1,0.2,0.3,0.3,0.4,0.3c0.2,0,0.3,0,0.5,0c0.6-0.1,0.6-0.1,0.8-0.4C72.6,65.1,72.6,64.3,72.3,63.8z"/>
			<g>
				<g>
					<path class="st9" d="M70.9,65.6L70.9,65.6c-0.1,0-0.2-0.2-0.2-0.4l0.5,0.1C71.1,65.5,71,65.7,70.9,65.6z"/>
				</g>
			</g>
			<path class="st68" d="M72.7,65.3c0,0.2-0.1,0.3-0.3,0.3c-0.2,0-0.3-0.1-0.3-0.3c0-0.2,0.1-0.3,0.3-0.3
				C72.6,65,72.7,65.1,72.7,65.3z"/>
			<path class="st66" d="M70.4,64.7c0.1-0.1,0.6-0.1,0.6-0.6c0.1-0.5,0.1,0.2,0.5,0.2c0.4,0,0.2,0.2,0.3,0.4s0.3,0.6,0.7,0.5
				c0.3-0.1,0.4-1.1,0.3-1.1s-0.9-1-0.9-1l-1.2,0.2l-0.4,0.8V64.7z"/>
			<path class="st68" d="M79.6,78.8L79.6,78.8c0.2-0.1,0.3-0.4,0.2-0.6l-0.6-0.6c-0.1-0.2-0.1,0-0.3,0.1l0,0c-0.2,0.1-0.4,0-0.2,0.4
				l0.3,0.5c0,0.1,0.1,0.1,0.2,0.2C79.3,78.9,79.4,78.9,79.6,78.8z"/>
			<path class="st41" d="M74.1,67.2c-1.3-0.3-1.2,3.2-1.2,3.2c0.8,0.4,1.9,1.7,3.4,3.2c0.8,1.2,2.4,4.4,2.4,4.4l0.7-0.3l-0.8-3.7
				c-0.3-1.1-0.4-1.2-1-2.4C77.5,71.6,75.6,67.6,74.1,67.2z"/>
			<path class="st71" d="M72.9,64.8c0,0,0,0.2-0.3,0.3"/>
			<path class="st71" d="M71,63.8c0,0-0.3-0.4,0.1-0.6"/>
			<path class="st71" d="M70.5,64.6c0,0-0.3,0.2-0.6,0.1"/>
			<line class="st52" x1="73.8" y1="70.2" x2="74.5" y2="71.7"/>
			<line class="st52" x1="68.2" y1="70.5" x2="68.5" y2="69.3"/>
		</g>
	</g>
	<g>
		<g>
			<path class="st8" d="M55.8,49.6c-0.1,0-0.2,0-0.2-0.1c-2.6-4.1-3.9-8.7-3.9-13.6c0-7.7,3.5-14.9,9.5-19.8c0.1-0.1,0.3-0.1,0.3,0
				c0.1,0.1,0.1,0.3,0,0.3c-5.9,4.8-9.3,11.8-9.3,19.4c0,4.7,1.3,9.3,3.8,13.3c0.1,0.1,0,0.3-0.1,0.3C55.9,49.6,55.9,49.6,55.8,49.6
				z"/>
		</g>
		<g>
			<path class="st8" d="M77.1,61.3c-3.6,0-7.1-0.7-10.4-2.2c-0.1-0.1-0.2-0.2-0.1-0.3c0.1-0.1,0.2-0.2,0.3-0.1
				c3.2,1.4,6.6,2.2,10.2,2.2c4.7,0,9.2-1.3,13.2-3.8c3.8-2.4,7-5.8,9-9.8c0.1-0.1,0.2-0.2,0.3-0.1c0.1,0.1,0.2,0.2,0.1,0.3
				c-2.1,4.1-5.3,7.6-9.2,10C86.5,60,81.9,61.3,77.1,61.3z"/>
		</g>
		<g>
			<path class="st8" d="M102.2,34.4c-0.1,0-0.2-0.1-0.2-0.2c-0.4-6.3-3.2-12.1-7.8-16.5c-4.6-4.4-10.7-6.7-17-6.7
				c-1.7,0-3.4,0.2-5.1,0.5c-0.1,0-0.3-0.1-0.3-0.2c0-0.1,0.1-0.3,0.2-0.3c1.7-0.4,3.5-0.5,5.2-0.5c6.5,0,12.7,2.4,17.4,6.9
				c4.7,4.4,7.5,10.4,8,16.8C102.5,34.3,102.4,34.4,102.2,34.4C102.2,34.4,102.2,34.4,102.2,34.4z"/>
		</g>
		<polygon class="st8" points="60.7,19.7 62.7,15.8 58.3,16.3 		"/>
		<polygon class="st8" points="100,32 102.3,35.8 104.1,31.8 		"/>
		<polygon class="st8" points="69.1,57.6 64.7,57.9 67.4,61.4 		"/>
		<circle class="st9" cx="77.3" cy="35.3" r="16.3"/>
		
			<image style="overflow:visible;" width="496" height="524" xlink:href="DB4C7D4A68C40F41.jpg"  transform="matrix(2.908946e-02 0 0 2.908946e-02 70.5882 27.4556)">
		</image>
	</g>
</g>
</svg>
