<?xml version="1.0" encoding="utf-8"?>
<!-- Generator: Adobe Illustrator 25.3.1, SVG Export Plug-In . SVG Version: 6.00 Build 0)  -->
<svg version="1.1" id="Camada_1" xmlns="http://www.w3.org/2000/svg" xmlns:xlink="http://www.w3.org/1999/xlink" x="0px" y="0px"
	 viewBox="0 0 111.7 108.7" style="enable-background:new 0 0 111.7 108.7;" xml:space="preserve">
<style type="text/css">
	.st0{fill:#DFE6D6;}
	.st1{fill:#B7C4A9;}
	.st2{fill:#29401E;}
	.st3{fill:#E2EED4;}
	.st4{fill:#B6D097;}
	.st5{fill:#DBE8CD;}
	.st6{opacity:0.68;fill:#B4D491;}
	.st7{fill:#478655;}
	.st8{fill:#2B5342;}
	.st9{fill:#FFFFFF;}
	.st10{fill:none;stroke:#949E88;stroke-width:2.9774;stroke-linecap:round;stroke-linejoin:round;stroke-miterlimit:10;}
	.st11{fill:#6D8D47;}
	.st12{fill-rule:evenodd;clip-rule:evenodd;fill:#DBE8CD;}
	.st13{fill-rule:evenodd;clip-rule:evenodd;fill:#E4633D;}
	.st14{fill-rule:evenodd;clip-rule:evenodd;fill:#4B2B1B;}
	.st15{fill-rule:evenodd;clip-rule:evenodd;fill:#8D9F79;}
	.st16{fill-rule:evenodd;clip-rule:evenodd;fill:#7C8C6C;}
	.st17{fill:#CA5936;}
	.st18{fill:#8D9F79;}
	.st19{fill-rule:evenodd;clip-rule:evenodd;fill:#3D2315;}
	.st20{fill-rule:evenodd;clip-rule:evenodd;fill:#728F3A;}
	.st21{fill-rule:evenodd;clip-rule:evenodd;fill:#CA5936;}
	.st22{fill-rule:evenodd;clip-rule:evenodd;fill:#F6CD7D;}
	.st23{fill-rule:evenodd;clip-rule:evenodd;fill:#EBC479;}
	
		.st24{fill-rule:evenodd;clip-rule:evenodd;fill:none;stroke:#E4BEA9;stroke-width:2.686;stroke-linecap:round;stroke-linejoin:round;stroke-miterlimit:10;}
	.st25{fill:none;stroke:#B68F3E;stroke-width:2.8878;stroke-linecap:round;stroke-linejoin:round;stroke-miterlimit:10;}
	.st26{fill-rule:evenodd;clip-rule:evenodd;fill:#572A22;}
	.st27{fill-rule:evenodd;clip-rule:evenodd;fill:#633D1D;}
	.st28{fill-rule:evenodd;clip-rule:evenodd;fill:#FFFFFF;}
	.st29{fill:#EBF2E1;}
	.st30{fill:#70914A;}
	.st31{fill:#475A2E;}
	.st32{fill:#638042;}
	.st33{fill:#91A678;}
	.st34{fill:#A5BD87;}
	.st35{fill:#91BB5F;}
	.st36{fill:#87AD59;}
	.st37{fill:#7A9E50;}
	.st38{fill:#ECC579;}
	.st39{fill:#89A861;}
	.st40{fill:#D5AA57;}
	.st41{fill:#F6CD7D;}
	.st42{fill:none;stroke:#FFFFFF;stroke-width:5.512;stroke-linecap:round;stroke-linejoin:round;stroke-miterlimit:10;}
	.st43{fill:#618141;}
	.st44{fill:#779E4F;}
	.st45{fill:#A5CB6D;}
	.st46{fill:none;stroke:#FFFFFF;stroke-width:4.0646;stroke-linecap:round;stroke-linejoin:round;stroke-miterlimit:10;}
	.st47{fill:#425F35;}
	.st48{fill:#DE5940;}
	.st49{fill:#663A25;}
	.st50{fill:#522E1D;}
	.st51{fill:#E4BE74;}
	.st52{fill:none;stroke:#CDAC69;stroke-width:2.756;stroke-linecap:round;stroke-linejoin:round;stroke-miterlimit:10;}
	.st53{fill:#BB432D;}
	.st54{fill:none;stroke:#482A1A;stroke-width:1.378;stroke-linecap:round;stroke-linejoin:round;stroke-miterlimit:10;}
	.st55{fill:none;stroke:#CDAC69;stroke-width:1.378;stroke-linecap:round;stroke-linejoin:round;stroke-miterlimit:10;}
	.st56{fill:#A3C77D;}
	.st57{fill:#90B070;}
	.st58{fill:#495E30;}
	.st59{fill:#5C793D;}
	.st60{fill:#D6DCCD;}
	.st61{fill:#FBFCFE;}
	.st62{fill:#C1CFB2;}
	.st63{fill:#434342;}
	.st64{fill:#789C4F;}
	.st65{fill:#D0A757;}
	.st66{fill-rule:evenodd;clip-rule:evenodd;fill:#623825;}
	.st67{fill:#4D2C1C;}
	.st68{fill:#874C2B;}
	.st69{fill:#E3B965;}
	.st70{fill:#6C3E27;}
	
		.st71{fill-rule:evenodd;clip-rule:evenodd;fill:none;stroke:#261711;stroke-width:0.8035;stroke-linecap:round;stroke-linejoin:round;stroke-miterlimit:10;}
	.st72{fill:#738F55;}
	.st73{fill:#D56D4E;}
	.st74{fill:#9CA88A;}
	.st75{fill:#7D8576;}
	.st76{fill-rule:evenodd;clip-rule:evenodd;fill:#D56D4E;}
	.st77{fill-rule:evenodd;clip-rule:evenodd;fill:#C4CFC6;}
	.st78{fill:#A5ADA6;}
	.st79{fill:#98BA6F;}
	.st80{fill:#A7B493;}
	.st81{fill:#C1CCB1;}
	.st82{fill:#EE8C89;}
	.st83{fill:#6F4E17;}
	.st84{fill:none;stroke:#A8A7A7;stroke-width:0.75;stroke-miterlimit:10;}
	.st85{fill:#A8A7A7;}
	.st86{fill:#98B977;}
</style>
<g>
	<ellipse class="st5" cx="52" cy="87.1" rx="25.9" ry="2.4"/>
	<path class="st0" d="M60.7,19.7c-8.4,2-11.5,6.7-19,13.5C22.6,50.5,13.2,40.4,8.6,54.3C4,68.3,16.8,87.5,42.1,75
		c14.2-7,37.4,15.7,50.8,0.9C111.2,55.6,95.1,11.6,60.7,19.7z"/>
	<path class="st28" d="M17.4,64.4c-0.7,0-1.2-0.7-0.8-1.4c0.6-1.2,1.7-2.7,3.3-2.6c1.6,0.1,2.7,1.2,3.2,2.1c0.3,0.4,0.8,0.6,1.2,0.3
		c0.6-0.3,1.4-0.6,2.4-0.6c0.5,0,1,0.1,1.5,0.4c0.9,0.4,0.6,1.8-0.4,1.8H17.4z"/>
	<path class="st28" d="M91.6,56.4c0.7,0,1.2-0.7,0.8-1.4c-0.6-1.2-1.7-2.7-3.3-2.6c-1.6,0.1-2.7,1.2-3.2,2.1
		c-0.3,0.4-0.8,0.6-1.2,0.3c-0.6-0.3-1.4-0.6-2.4-0.6c-0.5,0-1,0.1-1.5,0.4c-0.9,0.4-0.6,1.8,0.4,1.8H91.6z"/>
	<g>
		<path class="st2" d="M36.3,33c-0.6,0-1-0.5-1-1c0-0.6,0.5-1,1-1s1,0.5,1,1C37.3,32.5,36.8,33,36.3,33z M36.3,31.2
			c-0.4,0-0.8,0.4-0.8,0.8c0,0.4,0.4,0.8,0.8,0.8c0.4,0,0.8-0.4,0.8-0.8C37.1,31.5,36.7,31.2,36.3,31.2z"/>
	</g>
	<g>
		<path class="st2" d="M87.1,47.6c-0.6,0-1-0.5-1-1s0.5-1,1-1c0.6,0,1,0.5,1,1S87.6,47.6,87.1,47.6z M87.1,45.8
			c-0.4,0-0.8,0.4-0.8,0.8s0.4,0.8,0.8,0.8s0.8-0.4,0.8-0.8S87.5,45.8,87.1,45.8z"/>
	</g>
	<g>
		<path class="st2" d="M21.6,79.6c-0.6,0-1-0.5-1-1s0.5-1,1-1s1,0.5,1,1S22.2,79.6,21.6,79.6z M21.6,77.8c-0.4,0-0.8,0.4-0.8,0.8
			s0.4,0.8,0.8,0.8c0.4,0,0.8-0.4,0.8-0.8S22,77.8,21.6,77.8z"/>
	</g>
	<path class="st72" d="M50,76.5L50,76.5c-3.3,0-6-2.7-6-6v-9.6c0-3.3,2.7-6,6-6h0c3.3,0,6,2.7,6,6v9.6C56,73.8,53.3,76.5,50,76.5z"
		/>
	<g>
		<path class="st8" d="M50.1,86.8c-0.1,0-0.2-0.1-0.2-0.2V63.5c0-0.1,0.1-0.2,0.2-0.2c0.1,0,0.2,0.1,0.2,0.2v23.1
			C50.3,86.7,50.2,86.8,50.1,86.8z"/>
	</g>
	<path class="st72" d="M69.8,74.3L69.8,74.3c-4.1,0-7.4-3.3-7.4-7.4V55.2c0-4.1,3.3-7.4,7.4-7.4h0c4.1,0,7.4,3.3,7.4,7.4v11.7
		C77.2,70.9,73.9,74.3,69.8,74.3z"/>
	<g>
		<path class="st8" d="M70,86.8c-0.1,0-0.2-0.1-0.2-0.2V58.3c0-0.1,0.1-0.2,0.2-0.2c0.1,0,0.2,0.1,0.2,0.2v28.3
			C70.1,86.7,70.1,86.8,70,86.8z"/>
	</g>
	<path class="st72" d="M32.2,79.3L32.2,79.3c-2.4,0-4.4-2-4.4-4.4l0-7c0-2.4,2-4.4,4.4-4.4h0c2.4,0,4.4,2,4.4,4.4v7
		C36.6,77.3,34.6,79.3,32.2,79.3z"/>
	<g>
		<path class="st8" d="M32.2,86.8c-0.1,0-0.2-0.1-0.2-0.2V69.8c0-0.1,0.1-0.2,0.2-0.2c0.1,0,0.2,0.1,0.2,0.2v16.8
			C32.4,86.7,32.3,86.8,32.2,86.8z"/>
	</g>
	<path class="st72" d="M33.4,84.2c-1-0.7-2.3-1.2-4-1.4c0,0,0,0,0,0c-1.2-2.6-5.1-1.7-5.1,1.2v0c0,1.7,1.4,3.1,3.1,3.1h5.1
		C34.1,87.1,34.7,85.1,33.4,84.2z"/>
	
		<ellipse transform="matrix(0.9998 -2.068329e-02 2.068329e-02 0.9998 -1.8188 1.7492)" class="st12" cx="83.7" cy="88.8" rx="20.4" ry="1.2"/>
	<path class="st73" d="M70.9,88.5c-1.3-0.3-2-0.4-2-0.4c-1.2-0.3-1.7-0.6-0.8-1.2c0,0,0.6,0,1.6-0.1L70.9,88.5z"/>
	<path class="st74" d="M91,83.6l-6.1-6.2c-0.9-1-2.2-0.9-3.1,0.2l-7.7,9l2.3,0.2l6.8-4.5l5.3,5.1L91,83.6z"/>
	<path class="st14" d="M68.3,86.9l-1.1-0.5c-0.3-0.1-1.1-0.9-1.1-0.9l0,0c-0.3,0-0.3,0.3-0.2,0.4l1.6,2.8c0,0,0.5,0.6,1.5-0.7
		C68.4,87.7,68,87.3,68.3,86.9z"/>
	<path class="st74" d="M69.5,88.4l-0.1-1.6l11.8-3l12.7,0.3l-2.3,4.2c-4.2,0.4-11.5,0.2-11.5,0.2C74.1,89,73.8,88.7,69.5,88.4z"/>
	<path class="st74" d="M95.4,81.7c0,0,1.3,6.6-4.3,6.6c-5.6,0-7.2,0.1-7.2,0.1l0.4-2.4l4.2-0.3l1.6-2.7L95.4,81.7z"/>
	<g>
		<path class="st75" d="M85.3,84.1c-0.1,0-0.1,0-0.1-0.1c0-0.1,0-0.1,0.1-0.2l2.9-0.6c0.1,0,0.1,0,0.2,0.1c0,0.1,0,0.1-0.1,0.2
			L85.3,84.1C85.3,84.1,85.3,84.1,85.3,84.1z"/>
	</g>
	<path class="st76" d="M85.1,74.8c-0.9,0.6-2,0.5-2.8-0.5l-2.7-5.5l1.2-0.1l2.7,3.7L85.1,74.8z"/>
	<path class="st73" d="M80.5,69.7l-1.1-0.3c-0.2-0.1-0.4-0.2-0.5-0.4l-0.5-0.8c-0.2-0.3,0-0.6,0.3-0.7l0,0L80,68
		c0.3,0.1,0.5,0.3,0.7,0.6l0.3,0.5L80.5,69.7z"/>
	<path class="st77" d="M81.8,69.6c0,0-1.4,1.4-1.3,1.5c0.1,0.1,2.6,4.6,2.6,4.6s1,1.3,2,0.8c1.7-0.8,4.1-1.7,4.1-1.7
		s2.1-0.9,2.6-1.6c1-1.5-3.2-2-3.2-2c-0.5,0-3.8,2-4,1.8C83,72,81.8,69.6,81.8,69.6z"/>
	<path class="st21" d="M96.4,80.9c0,0,1.7-1.7,2.2-0.4l1.3,7.1l-1.3-0.3l-1.8-5.2L96.4,80.9z"/>
	<path class="st17" d="M98.9,87.9L98.9,87.9c0.3,0.2,1,0.2,1.6,0.3l0.8,0.1c0.3,0,0.3-0.3,0.1-0.6l0,0l-1.3-0.8
		c-0.3-0.2-0.6-0.2-1-0.2l-0.6,0.1l0,0.1C98.5,87.2,98.6,87.6,98.9,87.9z"/>
	<path class="st77" d="M95.9,72.6c1.1,0.1,4.1,13.1,4.1,13.1l-2.2,0.2L94.6,76L95.9,72.6z"/>
	<path class="st26" d="M91.3,69.2c0,0-0.5-0.7,0.4-1.3c0.9-0.5,0.7,1.1,0.7,1.1C92.3,69,91.3,69.2,91.3,69.2z"/>
	<path class="st26" d="M93.5,69.7c0,0-0.3,0.8-0.9,0.7c-0.6-0.1-0.3-1.9-0.3-1.9L93.5,69.7z"/>
	<path class="st21" d="M91.5,69.8c0,0-0.1,0.9-0.2,1.6c0,0.2,0.1,0.4,0.3,0.5c0.2,0.1,0.4,0.1,0.6,0.1c0.1,0,0.1-0.1,0.2-0.1
		c0.3-0.1,0.5-0.4,0.5-0.6c0-0.7,0-2,0-2L91.5,69.8L91.5,69.8z"/>
	<polygon class="st27" points="91.3,70.3 91.3,70.8 92,70.5 	"/>
	<path class="st21" d="M93.2,69c0.1-0.2,0-0.5-0.3-0.6c-0.3-0.1-0.6-0.2-0.9-0.3c-0.2-0.1-0.5,0-0.6,0.3c-0.2,0.3-0.3,0.9-0.4,1.4
		c0,0.3,0.1,0.6,0.3,0.7c0.3,0.1,1.1,0.2,1.4-0.3C92.9,69.7,93.1,69.4,93.2,69L93.2,69z"/>
	<path class="st26" d="M93.6,69.9c0,0,0.3-1,0-1.4c-0.4-0.6-1.1-1-2-0.6c0,0-0.5,0.2,0.8,0.6c0.2,0.1-0.3,0.8-0.1,1
		C92.8,69.7,93.1,69.8,93.6,69.9L93.6,69.9z"/>
	<path class="st21" d="M93.1,70.1c-0.1,0.2-0.4,0.2-0.5,0.1c-0.1-0.1-0.1-0.3,0-0.5c0.1-0.2,0.4-0.2,0.5-0.1
		C93.2,69.7,93.2,70,93.1,70.1z"/>
	<path class="st77" d="M88.6,71.3l2.2-0.2l1.9,0l3,1.3c0.8,0.5,0.5,1.2,0.1,2l0,2.8c0.5,2.1,0.3,3.7,0.1,5.8
		c-1.8,0.5-3.9,0.6-5.8,0.3c-2.2-0.3-4-1-3.5-3.2C87.6,75.5,87.3,74.6,88.6,71.3z"/>
	<path class="st17" d="M90.8,71.1c0,0-0.9,1.8,0.4,2c1.3,0.2,2.1-1.7,2.1-1.7l-0.9-0.5L90.8,71.1z"/>
	<g>
		<path class="st78" d="M95.7,79C95.6,79,95.6,78.9,95.7,79l-1.2-3.1c0,0,0-0.1,0-0.1l0.2-0.3c0,0,0.1,0,0.1,0c0,0,0,0.1,0,0.1
			l-0.2,0.3l1.1,3C95.8,78.9,95.8,78.9,95.7,79C95.7,79,95.7,79,95.7,79z"/>
	</g>
	<g>
		<path class="st78" d="M87.4,75.1C87.4,75.1,87.4,75.1,87.4,75.1c-0.1,0-0.1-0.1-0.1-0.1c0-0.1,0.3-0.6,0.3-0.7c0,0,0.1-0.1,0.1,0
			c0,0,0.1,0.1,0,0.1C87.7,74.6,87.5,74.9,87.4,75.1C87.5,75,87.5,75.1,87.4,75.1z"/>
	</g>
	<path class="st28" d="M91.2,69.5l0.5,0.2c0,0-0.1,0.4-0.4,0.3C91.1,69.8,91.2,69.5,91.2,69.5z"/>
	
		<rect x="27.2" y="46.2" transform="matrix(0.8106 -0.5855 0.5855 0.8106 -20.7001 32.9622)" class="st79" width="26.8" height="4.5"/>
	<rect x="52" y="42.6" transform="matrix(0.8106 -0.5855 0.5855 0.8106 -14.6029 44.788)" class="st79" width="20" height="4.7"/>
	
		<rect x="46.6" y="44.2" transform="matrix(0.5959 0.8031 -0.8031 0.5959 58.7768 -23.6739)" class="st79" width="12.7" height="4.7"/>
	<polygon class="st79" points="65.7,35.2 74.2,35.9 72.3,44.1 	"/>
	<polygon class="st80" points="69.5,29.6 55,40.1 53.3,37.8 67.8,27.3 	"/>
	<polygon class="st80" points="66,26.1 71.1,26.5 70,31.5 	"/>
	<polygon class="st81" points="81.6,32.2 76,36.3 74.4,34 80,29.9 	"/>
	<polygon class="st81" points="78.1,28.7 83.3,29.1 82.2,34.1 	"/>
	<g>
		<path class="st8" d="M72.3,44.2c0,0-0.1,0-0.1-0.1l-2.6-3.7c0-0.1,0-0.1,0-0.2c0.1,0,0.1,0,0.2,0l2.5,3.5l1.8-7.9
			c0-0.1,0.1-0.1,0.1-0.1c0.1,0,0.1,0.1,0.1,0.1l-1.8,8.1C72.4,44.1,72.4,44.2,72.3,44.2C72.3,44.2,72.3,44.2,72.3,44.2z"/>
	</g>
</g>
</svg>
