<?xml version="1.0" encoding="utf-8"?>
<!-- Generator: Adobe Illustrator 25.3.1, SVG Export Plug-In . SVG Version: 6.00 Build 0)  -->
<svg version="1.1" id="Camada_1" xmlns="http://www.w3.org/2000/svg" xmlns:xlink="http://www.w3.org/1999/xlink" x="0px" y="0px"
	 viewBox="0 0 111.7 108.7" style="enable-background:new 0 0 111.7 108.7;" xml:space="preserve">
<style type="text/css">
	.st0{fill:#DFE6D6;}
	.st1{fill:#B7C4A9;}
	.st2{fill:#29401E;}
	.st3{fill:#E2EED4;}
	.st4{fill:#B6D097;}
	.st5{fill:#DBE8CD;}
	.st6{opacity:0.68;fill:#B4D491;}
	.st7{fill:#478655;}
	.st8{fill:#2B5342;}
	.st9{fill:#FFFFFF;}
	.st10{fill:none;stroke:#949E88;stroke-width:2.9774;stroke-linecap:round;stroke-linejoin:round;stroke-miterlimit:10;}
	.st11{fill:#6D8D47;}
	.st12{fill-rule:evenodd;clip-rule:evenodd;fill:#DBE8CD;}
	.st13{fill-rule:evenodd;clip-rule:evenodd;fill:#E4633D;}
	.st14{fill-rule:evenodd;clip-rule:evenodd;fill:#4B2B1B;}
	.st15{fill-rule:evenodd;clip-rule:evenodd;fill:#8D9F79;}
	.st16{fill-rule:evenodd;clip-rule:evenodd;fill:#7C8C6C;}
	.st17{fill:#CA5936;}
	.st18{fill:#8D9F79;}
	.st19{fill-rule:evenodd;clip-rule:evenodd;fill:#3D2315;}
	.st20{fill-rule:evenodd;clip-rule:evenodd;fill:#728F3A;}
	.st21{fill-rule:evenodd;clip-rule:evenodd;fill:#CA5936;}
	.st22{fill-rule:evenodd;clip-rule:evenodd;fill:#F6CD7D;}
	.st23{fill-rule:evenodd;clip-rule:evenodd;fill:#EBC479;}
	
		.st24{fill-rule:evenodd;clip-rule:evenodd;fill:none;stroke:#E4BEA9;stroke-width:2.686;stroke-linecap:round;stroke-linejoin:round;stroke-miterlimit:10;}
	.st25{fill:none;stroke:#B68F3E;stroke-width:2.8878;stroke-linecap:round;stroke-linejoin:round;stroke-miterlimit:10;}
	.st26{fill-rule:evenodd;clip-rule:evenodd;fill:#572A22;}
	.st27{fill-rule:evenodd;clip-rule:evenodd;fill:#633D1D;}
	.st28{fill-rule:evenodd;clip-rule:evenodd;fill:#FFFFFF;}
	.st29{fill:#EBF2E1;}
	.st30{fill:#70914A;}
	.st31{fill:#475A2E;}
	.st32{fill:#638042;}
	.st33{fill:#91A678;}
	.st34{fill:#A5BD87;}
	.st35{fill:#91BB5F;}
	.st36{fill:#87AD59;}
	.st37{fill:#7A9E50;}
	.st38{fill:#ECC579;}
	.st39{fill:#89A861;}
	.st40{fill:#D5AA57;}
	.st41{fill:#F6CD7D;}
	.st42{fill:none;stroke:#FFFFFF;stroke-width:5.512;stroke-linecap:round;stroke-linejoin:round;stroke-miterlimit:10;}
	.st43{fill:#618141;}
	.st44{fill:#779E4F;}
	.st45{fill:#A5CB6D;}
	.st46{fill:none;stroke:#FFFFFF;stroke-width:4.0646;stroke-linecap:round;stroke-linejoin:round;stroke-miterlimit:10;}
	.st47{fill:#425F35;}
	.st48{fill:#DE5940;}
	.st49{fill:#663A25;}
	.st50{fill:#522E1D;}
	.st51{fill:#E4BE74;}
	.st52{fill:none;stroke:#CDAC69;stroke-width:2.756;stroke-linecap:round;stroke-linejoin:round;stroke-miterlimit:10;}
	.st53{fill:#BB432D;}
	.st54{fill:none;stroke:#482A1A;stroke-width:1.378;stroke-linecap:round;stroke-linejoin:round;stroke-miterlimit:10;}
	.st55{fill:none;stroke:#CDAC69;stroke-width:1.378;stroke-linecap:round;stroke-linejoin:round;stroke-miterlimit:10;}
	.st56{fill:#A3C77D;}
	.st57{fill:#90B070;}
	.st58{fill:#495E30;}
	.st59{fill:#5C793D;}
	.st60{fill:#D6DCCD;}
	.st61{fill:#FBFCFE;}
	.st62{fill:#C1CFB2;}
	.st63{fill:#434342;}
	.st64{fill:#789C4F;}
	.st65{fill:#D0A757;}
	.st66{fill-rule:evenodd;clip-rule:evenodd;fill:#623825;}
	.st67{fill:#4D2C1C;}
	.st68{fill:#874C2B;}
	.st69{fill:#E3B965;}
	.st70{fill:#6C3E27;}
	
		.st71{fill-rule:evenodd;clip-rule:evenodd;fill:none;stroke:#261711;stroke-width:0.8035;stroke-linecap:round;stroke-linejoin:round;stroke-miterlimit:10;}
	.st72{fill:#738F55;}
	.st73{fill:#D56D4E;}
	.st74{fill:#9CA88A;}
	.st75{fill:#7D8576;}
	.st76{fill-rule:evenodd;clip-rule:evenodd;fill:#D56D4E;}
	.st77{fill-rule:evenodd;clip-rule:evenodd;fill:#C4CFC6;}
	.st78{fill:#A5ADA6;}
	.st79{fill:#98BA6F;}
	.st80{fill:#A7B493;}
	.st81{fill:#C1CCB1;}
	.st82{fill:#EE8C89;}
	.st83{fill:#6F4E17;}
	.st84{fill:none;stroke:#A8A7A7;stroke-width:0.75;stroke-miterlimit:10;}
	.st85{fill:#A8A7A7;}
	.st86{fill:#98B977;}
</style>
<g>
	<path class="st0" d="M87.5,28.3c12.9,9.9,23.8,29.6,10.7,48.9c-8.5,12.6-19.3,9-30.4,6.2c-9.1-2.3-18.7-0.5-26.4,5
		c-5.2,3.8-14.5,7.1-25.5-4.2c-17-17.5-6.9-50.1,22.8-61C54.9,17.3,74,18,87.5,28.3z"/>
	<path class="st1" d="M45.2,50.7c-3.5,4.1-3.7,7.9-3.3,10.4c-1.6-2.8-3.3-5.4-4.9-7.7c6.8-7.3,1.5-12.5,1.5-12.5
		c-3.3,4-3.5,7.8-3.2,10.2c0,0,0,0,0,0c-2.3-3.1-4.5-5.8-6.4-8c5.7-8.8-0.6-13-0.6-13c-2.7,5-1.9,9-0.9,11.3
		c-2.1-2.3-3.7-3.9-4.5-4.6c-4.6-7.5-11.5-6.3-11.5-6.3c3.4,7.5,8.2,7.5,10.5,7c0.6,0.6,2.3,2.3,4.7,4.9c-6.9-2-11.1,2.1-11.1,2.1
		c7.2,4.2,11.2,1.3,12.7-0.3c1.9,2.2,4.1,4.8,6.3,7.8c0.2,0.3,0.5,0.6,0.7,1c-6.7-3.8-11.9-0.4-11.9-0.4c6.8,6,11.4,3,12.9,1.8
		c1.7,2.4,3.4,5.2,5.1,8.1C34.8,58.8,29.7,62,29.7,62c6.3,5.8,11.1,3.3,12.8,2c3.4,6.5,6.5,14.4,7.6,22.1c0,0.3-0.1,0.4,0.3,0.3
		c0.1,0,0.1,0,0.2-0.1c0.2-0.1,0.4-0.4,0.3-0.6c-1-8-4.1-15.6-7.6-22.2C50.5,56.1,45.2,50.7,45.2,50.7z"/>
	<path class="st1" d="M53.8,36.9c-4.4,3-5.6,6.7-5.9,9.2c-0.8-3.1-1.8-6.1-2.8-8.7c8.5-5.4,4.7-11.7,4.7-11.7
		c-4.2,3-5.4,6.6-5.7,9.1c0,0,0,0,0,0c-1.4-3.5-2.9-6.7-4.2-9.4c7.8-7,2.7-12.7,2.7-12.7c-3.9,4.1-4.1,8.2-3.7,10.7
		c-1.4-2.8-2.6-4.7-3.1-5.6c-2.6-8.4-9.5-9.1-9.5-9.1c1.4,8.1,6.1,9.3,8.3,9.4c0.4,0.7,1.7,2.8,3.3,5.9c-6.2-3.7-11.3-0.8-11.3-0.8
		c5.9,5.9,10.5,4.1,12.4,2.9c1.3,2.6,2.7,5.7,4.1,9.2c0.1,0.4,0.3,0.7,0.4,1.1C38,31,32,33,32,33c5,7.5,10.3,5.8,12,5
		c1,2.8,2,5.9,2.9,9.2c-5.3-5.1-11.1-3.3-11.1-3.3c4.6,7.2,9.9,6,11.9,5.2c1.7,7.1,2.7,15.5,1.7,23.3c0,0.3-0.2,0.4,0.2,0.4
		c0.1,0,0.1,0,0.2,0c0.3,0,0.5-0.3,0.5-0.5c1-8,0-16.1-1.7-23.4C57.5,43.5,53.8,36.9,53.8,36.9z"/>
	<g>
		<path class="st2" d="M94.2,48.3c-0.6,0-1.1-0.5-1.1-1.1s0.5-1.1,1.1-1.1c0.6,0,1.1,0.5,1.1,1.1S94.9,48.3,94.2,48.3z M94.2,46.3
			c-0.5,0-0.8,0.4-0.8,0.8s0.4,0.8,0.8,0.8s0.8-0.4,0.8-0.8S94.7,46.3,94.2,46.3z"/>
	</g>
	<g>
		<path class="st2" d="M71.2,19.7c-0.6,0-1.1-0.5-1.1-1.1c0-0.6,0.5-1.1,1.1-1.1s1.1,0.5,1.1,1.1C72.3,19.2,71.8,19.7,71.2,19.7z
			 M71.2,17.7c-0.5,0-0.8,0.4-0.8,0.8s0.4,0.8,0.8,0.8S72,19,72,18.6S71.6,17.7,71.2,17.7z"/>
	</g>
	<g>
		<path class="st2" d="M23.7,25.3c-0.6,0-1.1-0.5-1.1-1.1c0-0.6,0.5-1.1,1.1-1.1c0.6,0,1.1,0.5,1.1,1.1
			C24.8,24.8,24.3,25.3,23.7,25.3z M23.7,23.3c-0.5,0-0.8,0.4-0.8,0.8c0,0.5,0.4,0.8,0.8,0.8s0.8-0.4,0.8-0.8
			C24.5,23.7,24.1,23.3,23.7,23.3z"/>
	</g>
	
		<ellipse transform="matrix(0.2597 -0.9657 0.9657 0.2597 -19.5816 105.7657)" class="st3" cx="59.2" cy="65.7" rx="32.5" ry="32.5"/>
	<path class="st4" d="M85.7,46.9c-1.4-0.2-16.2-2.4-18.8,5.4c-2.7,8.2-9.6,6.8-7.2,15.2c2.3,8.4,8.9,13.3,17,12.2
		c9.4-1.3-8.6,12.7-1.5,14.2C90.9,85.4,97.3,63.9,85.7,46.9z"/>
	<path class="st4" d="M41.5,38.4c0,0,14.2-0.8,14.8,4.3c0.6,5.2-3,4.3-7.7,7.3c-4.7,3-6.8,0.6-9.4,5.1s-11.3,2.2-11.3,2.2
		S29.6,46.1,41.5,38.4z"/>
	<path class="st4" d="M27.4,71.6c0,0,10.4-2.2,14.2,5.1c3.8,7.3,6.8,4.4,9.2,7.6c0.7,0.9,0.6,2.1,0.2,3.4c-1.7,4.9-7.7,6.7-11.9,3.8
		C34.8,88.6,29.8,82.8,27.4,71.6z"/>
	<ellipse class="st5" cx="58.9" cy="97.8" rx="23.6" ry="2.3"/>
	<path class="st6" d="M87,82c-9,15.5-28.7,20.7-44.2,11.7c34.3-2.2,44-33.8,32.5-56.1C90.8,46.6,96.1,66.5,87,82z"/>
	<path class="st7" d="M70.9,51.8c-8-0.2-12.8,6.9-12.8,7l0,0c-1.6,1.9-5,7.4-5.5,8.2c-0.8,1.1-1.5,2-2.2,2.7
		c-1.4,1.1-3.2,1.6-5.5,1.6c-3.9-0.1-6.7-2.8-6.6-6.6c0-4.2,3.1-6.9,7.5-6.8c2.2,0.1,4.5,2.1,6.6,4.3c1.4-1.6,3.3-3.7,4.5-5.1
		c-1.8-2.1-5.9-5.9-11.3-6c-8-0.2-13.5,5.1-13.6,13.2c-0.1,7.9,5.3,13.8,12.8,14c2.6,0.1,5.1-0.7,7.4-2.2l1.1-0.8
		c1.1-0.9,2.2-2,3.2-3.4c0,0,0.6-0.9,1-1.5l0.2-0.3c2-3.7,6.7-8,6.7-8c1.4-1.4,3.1-2.9,4.9-3.4c0.1,0,0.1,0,0.2,0
		c0.4-0.1,0.7-0.1,1.1-0.1c4.4,0.1,7.4,3,7.3,7.2c0,3.8-3.1,6.2-6.7,6.2c-0.1,0-0.3,0-0.4,0c-0.8-0.1-1.6-0.3-2.3-0.6l1.3-2.1
		L61,69.9l2.1,9.3l1.4-2.3c2,1.4,4.1,2,6.6,2.1c3.8,0.1,7-1.3,9.4-3.6c2.3-2.4,3.7-5.7,3.8-9.7C84.3,57.6,79,52,70.9,51.8z"/>
	<g>
		<path class="st8" d="M66.1,75C66,75,66,75,66.1,75c-0.1-0.1-0.2-0.1-0.1-0.2l3.5-5.5L61,70c-0.1,0-0.1,0-0.1-0.1
			c0-0.1,0-0.1,0.1-0.1l8.7-0.7c0.1,0,0.1,0,0.1,0.1c0,0,0,0.1,0,0.1l-3.7,5.7C66.1,75,66.1,75,66.1,75z"/>
	</g>
	<g>
		<path class="st8" d="M78.8,91.6c0,0-0.1,0-0.1-0.1c0-0.1,0-0.1,0-0.2c3.9-3,7.1-6.8,9.2-11.1c2.3-4.5,3.5-9.4,3.5-14.6
			c0-4.4-0.9-8.6-2.5-12.6c-1.6-3.9-4-7.3-6.9-10.3c-3-3-6.4-5.3-10.3-6.9c-4-1.7-8.2-2.5-12.6-2.5c-0.9,0-1.8,0-2.7,0.1
			c-0.1,0-0.1,0-0.1-0.1c0-0.1,0-0.1,0.1-0.1c0.9-0.1,1.8-0.1,2.7-0.1c4.4,0,8.7,0.9,12.7,2.6c3.9,1.6,7.4,4,10.4,7
			c3,3,5.3,6.5,7,10.4c1.7,4,2.6,8.3,2.6,12.7c0,5.2-1.2,10.1-3.5,14.7C86,84.7,82.8,88.6,78.8,91.6C78.9,91.6,78.8,91.6,78.8,91.6z
			"/>
	</g>
	<g>
		<path class="st9" d="M35.5,49.6c-0.1,1.6,1.9,3.8,1.9,3.8s2.2-2,2.3-3.5c0.1-1.6-0.8-2.1-2-2.2C36.5,47.6,35.6,48,35.5,49.6z"/>
		<path class="st9" d="M35.7,58.3c1.1-1.1,1.2-4.1,1.2-4.1s-3,0-4.1,1.1c-1.1,1.1-0.8,2.1,0,2.9C33.6,59,34.6,59.4,35.7,58.3z"/>
		<path class="st9" d="M32.5,53.9c1.4,0.7,4.2-0.2,4.2-0.2s-0.9-2.8-2.3-3.5c-1.4-0.7-2.2-0.1-2.8,1C31.1,52.2,31.1,53.2,32.5,53.9z
			"/>
		<path class="st9" d="M41,51.2c-1.6,0-3.6,2.2-3.6,2.2s2.2,2,3.7,2c1.6,0,2-1,2-2.2C43.1,52.1,42.6,51.2,41,51.2z"/>
		<path class="st9" d="M40.8,56.6c-0.6-1.4-3.4-2.5-3.4-2.5s-1.1,2.8-0.4,4.2c0.6,1.4,1.7,1.5,2.7,1S41.4,58.1,40.8,56.6z"/>
		<line class="st10" x1="39.8" y1="55.3" x2="38.3" y2="54.4"/>
		<line class="st10" x1="38" y1="52.9" x2="38.7" y2="52.1"/>
		<line class="st10" x1="36" y1="51.8" x2="36.6" y2="52.8"/>
		<line class="st10" x1="35.9" y1="54.2" x2="34.8" y2="54.4"/>
		<line class="st10" x1="36.8" y1="55.2" x2="36.6" y2="56.2"/>
		<circle class="st11" cx="37.1" cy="53.9" r="1.3"/>
	</g>
	<g>
		
			<ellipse transform="matrix(1 -1.260096e-03 1.260096e-03 1 -0.1244 2.311464e-02)" class="st12" cx="18.3" cy="98.7" rx="9.1" ry="1.1"/>
		<path class="st13" d="M21.1,97.3c0,0-1.6-8.2-0.2-11.5l-1.4-11.2l5.2,0.3l-2.2,22.5L21.1,97.3z"/>
		<path class="st14" d="M22.6,97l0.8,0.7c0.2,0.2,1.3,0.5,1.3,0.5l0,0c0.1,0.2-0.1,0.4-0.3,0.4l-3.3,0c0,0-0.8-0.1-0.2-1.6
			C21.6,97.3,22.5,97.5,22.6,97z"/>
		<path class="st15" d="M25.2,76.7l-1.9,19l-3.8,0.1c0,0,0.3-1.7,0.2-2.2s-0.4-5.5,0.6-7.8l-0.5-9.3L25.2,76.7z"/>
		<path class="st16" d="M20.3,85.8l-0.5-9.3l1.8,0.1l0.4,6.8c0.1,1.3,0,2.6-0.3,3.8c-0.5,2.5-0.2,6-0.2,6.4c0.1,0.5-0.2,2.2-0.2,2.2
			l-1.8,0c0,0,0.3-1.7,0.2-2.2C19.6,93,19.2,88.1,20.3,85.8z"/>
		<path class="st15" d="M17.2,69.1l7.1,0.4c1.2,0.4,0.8,7.1,0.8,7.1L20.5,77c-2.2,0-4.7,1.7-5.1-1.9C15,70.9,17.2,69.1,17.2,69.1z"
			/>
		<path class="st17" d="M12.6,94.8c0,0,0,0,0.1,0.1c-0.1,0.9,0,1.3-0.1,2.2c0.4,0.1,0.5,0.6,0.9,0.7c0.1,0,0-0.5,0.1-0.6l1.1-2.4
			L12.6,94.8z"/>
		<path class="st18" d="M21.3,72.3c-2,7.9-4,15.7-6.2,23.7c-1.1-0.2-3.3-0.1-3.3-0.1s0.4-1.4,0.4-1.6c0.8-4.8,0.4-5.5,1.4-9.2
			c1-5.4,1.4-9,2.6-13.4C18.1,71.8,19.4,72.2,21.3,72.3c0,0.1,0,0.1,0,0.1C21.4,72.4,21.4,72.4,21.3,72.3z"/>
		<path class="st19" d="M13.7,97c0,0,0.2,0.9,0.1,1.5c0,0.1-0.1,0.2-0.2,0.3c-0.1,0.1-0.2,0.1-0.3,0.1c-0.2,0-0.5,0-0.7,0
			c-0.1,0-0.2,0-0.2-0.1c0,0-0.1-0.1-0.1-0.1c-0.2-0.2-0.1-0.5,0.1-0.8c0.2-0.4,0.3-0.8,0.3-0.8C13.2,96.7,13.7,97,13.7,97z"/>
		<path class="st17" d="M24.6,70.8l0.1,0.9c0,0.2,0.1,0.4,0.3,0.5l0.6,0.5c0.2,0.2,0.5,0.1,0.6-0.2l0,0L26,71.3
			c-0.1-0.3-0.2-0.5-0.4-0.7l-0.4-0.3L24.6,70.8z"/>
		<path class="st20" d="M15.7,74.3c0,0,4.4-0.4,5.6-0.4l-5.7-1.4C15.6,72.5,15.6,73.8,15.7,74.3z"/>
		<g>
			<path class="st21" d="M23.8,70.6c0,0,2.1-2.2,3.3-3.9c1.3-1.8,2.9,0.8,1.8,1.7c-0.4,0.3-3.9,3.1-3.9,3.1L23.8,70.6z"/>
		</g>
		<path class="st22" d="M22.3,60.1l-2-0.5l-0.8,0l-3,0.8c-1,0.4-1.5,1.6-1.2,2.6l0.4,3.3c-0.2,2.9-0.2,5.5-0.2,7.9
			c0,0.4,0.3,0.8,0.7,0.9c2.9,0.5,7.7,0.9,9-0.8C25.4,69,24.2,63.6,22.3,60.1z"/>
		<path class="st23" d="M21,75.5c0,0-5.6-5.4-5.1-10.9l-0.4,4.5c0,0-0.4,3-0.5,5.5C14.9,74.6,17.1,75.7,21,75.5z"/>
		<path class="st24" d="M24.6,64.4c0,0-0.9-1.7-1.2-2.1"/>
		<path class="st21" d="M22.2,61.3c2.6-0.2,4.8,2.2,6.8,5.4c0.2,0.3-1.5,1.8-1.7,1.5c-1.6-1.9-3.7-3.6-3.7-3.6L22.2,61.3z"/>
		<path class="st22" d="M21.4,59.8c2.8,0.5,3.3,0.7,4.2,1.7c0.8,0.9,1.7,1.9,2.5,2.7c0.2,0.2-1.7,1.2-1.9,1.5
			c-1.6,2.4-4.4-3.1-4.4-3.1L21.4,59.8z"/>
		<path class="st21" d="M17,61.6c0.7,4.4,0.6,2.5-4.4,6.2c-0.3,0.2-0.5-0.8-0.9-0.7c-0.5,0.2-0.8,0.3-0.8,0.2
			c-0.2-1.3,5.5-5.8,5.5-5.8L17,61.6z"/>
		<path class="st22" d="M16.7,60.4c0,0-0.7,0.2-1.4,0.8c-0.4,0.3-1.2,1-2,1.5c-0.3,0.2-1,0.7-1,1C12.2,66,14.4,67,14.4,67l4.3-3
			L16.7,60.4z"/>
		<path class="st21" d="M16.5,71.4c0-0.3-2.2-3.3-3.7-4c-0.7-0.3-1.1-0.8-1.5-0.7c-0.8,0.2-0.9,1.5-0.1,2.2c0.5,0.4,4.3,2.9,4.3,2.9
			L16.5,71.4z"/>
		<line class="st25" x1="23.9" y1="64.4" x2="23.6" y2="62.8"/>
		<line class="st25" x1="17.2" y1="63.2" x2="16.5" y2="64.9"/>
		<path class="st17" d="M15.8,71.3L15.3,72c-0.1,0.1-0.2,0.3-0.2,0.5l0,0.8c0,0.3,0.3,0.4,0.5,0.3l0,0l0.7-1
			c0.1-0.2,0.2-0.5,0.2-0.8l0-0.5L15.8,71.3z"/>
		<path class="st26" d="M21.4,57.9c0,0,0.7-0.8-0.3-1.6c-0.9-0.8-1,1.2-0.9,1.2C20.2,57.5,21.4,57.9,21.4,57.9z"/>
		<path class="st26" d="M18.7,58.1c0,0,0.2,1,0.9,1c0.7,0,0.7-2.2,0.7-2.2L18.7,58.1z"/>
		<path class="st21" d="M21.2,58.6c0,0-0.2,1.1-0.4,1.9c0,0.2-0.2,0.4-0.5,0.5c-0.3,0.1-0.5,0-0.7-0.2c-0.1-0.1-0.1-0.1-0.2-0.2
			c-0.3-0.2-0.4-0.6-0.3-0.9c0.3-0.8,0.8-2.2,0.8-2.2L21.2,58.6L21.2,58.6z"/>
		<polygon class="st27" points="21.1,59.2 20.9,59.8 20.3,59.2 		"/>
		<path class="st21" d="M19.2,57.4c-0.1-0.3,0.1-0.6,0.4-0.7c0.3-0.1,0.7-0.2,1.1-0.3c0.3-0.1,0.6,0.1,0.7,0.4
			c0.1,0.3,0.3,1.1,0.3,1.7c0,0.3-0.2,0.7-0.5,0.7c-0.3,0.1-1.4,0-1.6-0.6C19.4,58.2,19.3,57.8,19.2,57.4L19.2,57.4z"/>
		<path class="st26" d="M18.6,58.3c0,0-0.3-1.2,0.2-1.7c0.6-0.7,1.4-1.1,2.4-0.3c0,0,0.5,0.3-1.1,0.6c-0.2,0,0.2,1-0.1,1.1
			C19.6,58.2,19.1,58.3,18.6,58.3L18.6,58.3z"/>
		<path class="st21" d="M19.1,58.7c0.1,0.2,0.4,0.3,0.6,0.2c0.2-0.1,0.2-0.4,0.1-0.6c-0.1-0.2-0.4-0.3-0.6-0.2
			C19,58.2,19,58.5,19.1,58.7z"/>
		<path class="st28" d="M21.3,58.3l-0.5,0.1c0,0,0.1,0.3,0.3,0.2C21.4,58.5,21.3,58.3,21.3,58.3z"/>
	</g>
	<g>
		<path class="st8" d="M27.8,57.5C27.8,57.5,27.7,57.5,27.8,57.5c-0.1,0-0.1-0.1-0.1-0.2c0,0,0.7-4.3,3.8-9.2
			c1.8-2.9,4.1-5.5,6.8-7.7c3.3-2.7,7.3-4.8,11.8-6.2c0.1,0,0.1,0,0.2,0.1c0,0.1,0,0.1-0.1,0.2c-4.5,1.4-8.4,3.5-11.7,6.2
			c-2.7,2.2-4.9,4.7-6.7,7.6c-3.1,4.9-3.8,9.1-3.8,9.2C27.9,57.5,27.8,57.5,27.8,57.5z"/>
	</g>
</g>
</svg>
